<svg height="600" width="600" xmlns="http://www.w3.org/2000/svg" xmlns:xlink="http://www.w3.org/1999/xlink"><path d="m0 0h600v600h-600z"/><path d="m0 200h600v400h-600z" fill="#d00"/><path d="m0 400h600v200h-600z" fill="#ffce00"/><g transform="matrix(.204591 0 0 .204548 133.5001 254.7414)"><path d="m1351.01 228.29a520 570.51 0 1 1 -1040 0 520 570.51 0 1 1  1040 0z" fill="#d00" transform="matrix(1.09099 0 0 1.00519 -93.10889 -17.03263)"/><g transform="translate(-896.5747 -1479.218)"><use height="1052.36" transform="matrix(-1 0 0 1 3344.188 -55.39965)" width="744.09" xlink:href="#a"/><use height="1052.36" transform="matrix(-1 0 0 1 3362.762 -41.47837)" width="744.09" xlink:href="#a"/><use height="1052.36" transform="matrix(-1 0 0 1 3381.317 -27.62595)" width="744.09" xlink:href="#a"/><use height="1052.36" transform="matrix(-1 0 0 1 3399.832 -13.72483)" width="744.09" xlink:href="#a"/><use height="1052.36" transform="matrix(-1 0 0 1 3418.376 .166189)" width="744.09" xlink:href="#a"/><use height="1052.36" transform="translate(74.6188 -55.50708)" width="744.09" xlink:href="#a"/><use height="1052.36" transform="translate(55.83946 -41.54721)" width="744.09" xlink:href="#a"/><use height="1052.36" transform="translate(37.06012 -27.58735)" width="744.09" xlink:href="#a"/><use height="1052.36" transform="translate(18.4746 -13.76497)" width="744.09" xlink:href="#a"/><path id="a" d="m1605.68 2445.31l175.51 82.98 18.55-13.92-164.76-77.69z" fill="#ffc709" stroke="#000" stroke-width="6.25"/></g><g transform="translate(-896.5747 -1479.218)"><path d="m1718.03 1214.38l-249.53 13.4v66.6 13.81 66.59l249.53 13.41h27.03l208.06-30.56v-49.44-13.81-49.44l-208.06-30.56z" stroke="#000" stroke-linejoin="round" stroke-width="12.5"/><rect fill="#ffc709" height="734.85" rx="21.87" stroke="#000" stroke-linejoin="round" stroke-width="13.75" width="129.76" x="1644.46" y="1464.95"/><path d="m2002.87 1700.09c-73.75 76.15-176.98 123.57-291.28 123.57-81.71 0-157.75-24.29-221.44-65.91l-51.9 76.72c78.5 51.66 172.4 81.81 273.34 81.81 140.09 0 266.67-58.01 357.22-151.19z" fill="#ffc709" stroke="#000" stroke-width="13.75"/><path d="m1662.75 1371.5l-357.41 660.16 404.6-522.13 404.62 522.13-357.37-660.16-47.22 66.31z" fill="#ffc709" stroke="#000" stroke-width="13.75"/><path d="m1717.6 1221.35l-171.41 8.22-71.18 28.57v86.28l70.25 28.57 172.34 9.15h26.27l202.27-29.67v-44.33-12.78-45.73l-202.27-28.28z" fill="#ffc709"/><rect fill="#ffc709" height="121.74" rx="59.4" stroke="#000" stroke-linejoin="round" stroke-width="17.72" width="118.79" x="1649.9" y="1351.86"/><path d="m1734.85 1412.92a26.52 26.52 0 1 1 -53.04 0 26.52 26.52 0 1 1  53.04 0z" fill="#ffc709" stroke="#000" stroke-linejoin="round" stroke-width="6.25" transform="matrix(.948831 0 0 .948729 88.46034 71.26418)"/></g><g id="b" transform="translate(-896.5747 -1479.218)"><path d="m1247.35 2299.71l-224.59-251.16-88.15-315.15 31.39-291.01 143.7-278.94 222.18-171.46 132.82-49.51 37.44 54.34 65.2 19.32-37.43 31.39-4.83 80.91-227.01 148.52-137.66 229.42-13.28 258.41 68.83 224.6 263.23 251.16z" fill="#ffc709"/><g><use height="1052.36" transform="matrix(.999456 -.032981 .03298088 .999456 -82.2208 115.8993)" width="744.09" xlink:href="#c"/><use height="1052.36" transform="matrix(.99935 -.03605805 .03605791 .99935 -151.9702 83.45806)" width="744.09" xlink:href="#d"/><use height="1052.36" transform="translate(-120.2254 6.373583)" width="744.09" xlink:href="#d"/><use height="1052.36" transform="matrix(.9998 -.01997304 .01997296 .9998 -84.54348 89.98236)" width="744.09" xlink:href="#c"/><use height="1052.36" transform="matrix(.885908 .00017663 -.00019689 .987657 147.2906 -.54859)" width="744.09" xlink:href="#c"/><use height="1052.36" transform="translate(56.08591 -19.55353)" width="744.09" xlink:href="#c"/><use height="1052.36" transform="translate(-25.2257 -14.84422)" width="744.09" xlink:href="#d"/><use height="1052.36" transform="matrix(.998145 -.0608806 .06088038 .998145 -49.46301 100.4263)" width="744.09" xlink:href="#d"/><use height="1052.36" transform="matrix(.999541 -.03026764 .03026752 .999541 80.70093 100.7888)" width="744.09" xlink:href="#c"/><use height="1052.36" transform="translate(23.90821 16.69647)" width="744.09" xlink:href="#c"/><path id="c" d="m991.04 1855.71c0 0 8.82 28.99 30.21 63.99 23.74 36.42 41.25 34.85 41.25 34.85 0 0 26.61 4.85 30.37-15.94 1.4-20.79-12.67-28.28-12.67-28.75 0 .47-15.36-11.27-35.2-20.16-17.02-11.23-15.93-11-25.78-24.61-6.1-15.48-4.22-4.7-19.22-65.23-15-60.53-21.25-94.22-21.72-94.22l-21.49 4.21 19.46 88.14 6.81 30.03z" fill="#ffc709" stroke="#000" stroke-linejoin="round" stroke-width="6.25"/><path id="d" d="m1049.23 1688.66l40.82 156.98c0 0 4.89 17.06 7.61 34.47-.57 20.69-4.54 28.81-4.54 28.81-.47 0-2.6 10.95-4.01 22.2-.94 15.47 5.58 26.24 5.58 25.77 0 .47 4.99 8.28 20.16 9.69 17.5-.47 20.15-12.97 20.15-12.97 0 0 2.7-1.25 1.98-18.75-.73-17.5-9.48-45-9.48-45l-58.75-212z" fill="#ffc709" stroke="#000" stroke-linejoin="round" stroke-width="6.25"/><use height="1052.36" transform="matrix(.997245 -.07417704 .07417692 .997245 28.72989 156.3117)" width="744.09" xlink:href="#c"/><path d="m1130.62 1752.82l56.1 149.93c0 0 6.54 16.22 10.96 33.1 1.48 20.6-1.66 29.22-1.66 29.22-.47.06-1.51 11.21-1.8 22.57.6 15.48 8.14 25.24 8.09 24.78.05.46 5.79 7.5 21 6.76 17.36-2.93 18.76-15.7 18.76-15.7 0 0 2.57-16.63-2.23-32.95-3.86-20.53-40.61-87.86-55.16-133.38l-32.42-99.19z" fill="#ffc709" stroke="#000" stroke-linejoin="round" stroke-width="6.25"/></g><g><use height="1052.36" transform="translate(35.03599 6.845677)" width="744.09" xlink:href="#e"/><use height="1052.36" transform="translate(19.3666 -.654323)" width="744.09" xlink:href="#e"/><use height="1052.36" transform="matrix(.99154 .129804 -.129804 .99154 310.7798 -167.8081)" width="744.09" xlink:href="#e"/><use height="1052.36" transform="matrix(.989267 -.14612 .14612 .989267 -295.5019 158.9123)" width="744.09" xlink:href="#f"/><path id="e" d="m1072.69 1170.14c0 0-21.08 23.85-50.19 72.22-28.17 47.44-29.37 49.38-42.5 85-9.38 34.69-9.47 46.41-2.97 65.78 8.38 15.62 16.58 18.91 24.22 19.22 7.64.31 11.57-1.78 17.18-10.41 11.25-25.53-2.93-38.34-7.18-59.59-4.25-21.25-2.49-4.91-2.5-20.65 2.34-20.9 8.9-26.37 11.72-32.01 4.22-7.97 7.2-13.98 30.78-49.17 24.52-37.54 36.25-58.17 36.25-58.17 0 0 2.59-8.39-3.08-12.5-5.43-3.94-11.73.28-11.73.28z" fill="#ffc709" stroke="#000" stroke-width="6.25"/><use height="1052.36" transform="translate(-22.62156 -33.45269)" width="744.09" xlink:href="#f"/><use height="1052.36" transform="matrix(.993134 .116981 -.116981 .993134 309.1862 -143.5774)" width="744.09" xlink:href="#e"/><use height="1052.36" transform="translate(-5.051164 -25.44072)" width="744.09" xlink:href="#f"/><use height="1052.36" transform="matrix(.992655 .120979 -.120979 .992655 276.319 -169.5983)" width="744.09" xlink:href="#e"/><path id="f" d="m1286.66 1173.43c0 0-46.05 55.18-62.91 76.43-20.14 23.13-40.43 57.03-57.5 74.06-19.89 15.63-37.5 16.1-51.25 25.94-15.63 10.32-19.06 15.94-21.25 26.25-1.72 14.07 10.53 26.25 25 23.75 14 .32 32.5-19.5 32.5-19.5 0 0 25.15-34.35 42.5-58 38.47-56.49 110.75-137.5 110.75-137.5z" fill="#ffc709" stroke="#000" stroke-width="6.25"/><use height="1052.36" transform="matrix(1.105681 -.04354951 .05267582 1.047619 -211.8254 44.91779)" width="744.09" xlink:href="#f"/><use height="1052.36" transform="matrix(.998663 .05168639 -.05168621 .998663 30.62677 -74.48307)" width="744.09" xlink:href="#g"/><use height="1052.36" transform="matrix(1.124942 -.124979 .142751 .991863 -325.2479 250.8697)" width="744.09" xlink:href="#f"/><path id="g" d="m1324.2 1275.25c0 0-6.23 8.37-58.65 83.36-47.27 81.57-54.3 96.83-54.3 96.83 0 0-7.49 15.67-15.62 20.67-8.13 5-22.42 5.24-26.88 2.19-4.25-2.91-6.56-3.28-8.75-18.44 1.1-9.06 3.53-12.78 7.09-16.34 7.3-6.15 11.13-7.31 20.31-10.76 8.97-5.26 12.28-10.05 18.11-18.91 11.41-20.21 16.46-30.07 35.84-59.66 25.09-39.08 45.16-63.14 68.33-93.95z" fill="#ffc709" stroke="#000" stroke-width="6.25"/></g><g><path d="m1627.16 871.97c-72.04 7.59-141.32 24.5-206.53 49.66l5.56 11.15c65.15-24.99 133.59-41.32 202.97-48.69 6.04-.68 4.7-12.78-2-12.12z" fill="#ffc709" stroke="#000" stroke-linecap="round" stroke-linejoin="round" stroke-width="5.14"/><path d="m1668.81 891.22c-66.16 3.43-119.49 13.52-174.59 29.62-21.42 6.15-42.54 13.26-63.34 21.25l5.65 11.32c74.64-28.39 153.64-45.22 233.38-49.75 7.35-.8 6.31-12.32-1.1-12.44z" fill="#ffc709" stroke="#000" stroke-linecap="round" stroke-linejoin="round" stroke-width="5"/><path d="m1638.19 916.41c-67.28 6.84-133.74 22.31-197 46.25l4.75 9.5c62.31-23.45 127.75-38.58 193.97-45.38 6.13-.44 4.89-10.94-1.72-10.37z" fill="#ffc709" stroke="#000" stroke-linecap="round" stroke-linejoin="round" stroke-width="5"/><path d="m1449.69 979.66l5.62 11.22c88.96-32.39 168.25-44.8 236.41-46.82 7.07-.43 7.09-11.94-.94-12.37-77.42 2.68-166.49 19.97-241.09 47.97z" fill="#ffc709" stroke="#000" stroke-linecap="round" stroke-linejoin="round" stroke-width="5"/><path d="m1654.69 956.06c-59.27 4.9-125.95 18.84-194.69 44.19l5.75 11.47c59.11-21.89 138.31-39.45 191.09-43.34 7.34-1.09 5.61-12.91-2.15-12.32z" fill="#ffc709" stroke="#000" stroke-linecap="round" stroke-linejoin="round" stroke-width="5"/><path d="m1471.38 1022.91l5.59 11.18c60.17-22.09 158.98-42.99 216.34-42.03 6.2-.48 5.69-12.04-.53-12.53-71.94-.04-147.15 16.44-221.4 43.38z" fill="#ffc709" stroke="#000" stroke-linecap="round" stroke-linejoin="round" stroke-width="5"/><path d="m1648.13 1006.22c-56.4 6.45-112.14 19.57-165.54 39.09l5.6 11.16c50.27-18.16 105.78-32.17 161.37-37.72 8.24-1.16 7.09-13.05-1.43-12.53z" fill="#ffc709" stroke="#000" stroke-linecap="round" stroke-linejoin="round" stroke-width="5"/><path d="m1493.75 1067.59l5.63 11.19c49.24-17.66 127.05-34.13 180-36.87 7.69-.88 6.67-12.49-1.07-12.69-61.98 2.35-129.52 19.07-184.56 38.37z" fill="#ffc709" stroke="#000" stroke-linecap="round" stroke-linejoin="round" stroke-width="5"/><path d="m1683.91 1056.22c-45.91.35-126.34 17.26-177.97 35.66l5.62 11.21c49.35-17.46 130.66-33.53 172.94-34.53 8.52-.09 8.33-12.25-.59-12.34z" fill="#ffc709" stroke="#000" stroke-linecap="round" stroke-linejoin="round" stroke-width="5"/><path d="m1644.75 1085.25c-43.05 6.13-85.59 16.45-126.66 30.91l5.6 11.15c39.21-14.21 82.91-24.7 123.65-30.03 7.86-1.66 5.99-13.72-2.59-12.03z" fill="#ffc709" stroke="#000" stroke-linecap="round" stroke-linejoin="round" stroke-width="5"/><path d="m1682.31 1105.81c-47.42 1.7-109.34 15.64-153.78 31.19l5.63 11.22c41.43-14.3 100.57-28.18 148.34-29.91 8.66-.47 7.93-13.03-.19-12.5z" fill="#ffc709" stroke="#000" stroke-linecap="round" stroke-linejoin="round" stroke-width="5"/><use height="1052.36" transform="matrix(-.342847 .886674 -.904743 -.333954 3477.79 854.2747)" width="744.09" xlink:href="#h"/><use height="1052.36" transform="matrix(-.615062 -.668952 -.683653 .601574 3316.868 691.1588)" width="744.09" xlink:href="#h"/><use height="1052.36" transform="matrix(.08304219 .913807 -.907373 .08363065 3016.55 99.30195)" width="744.09" xlink:href="#h"/><use height="1052.36" transform="matrix(-.533441 -.689356 -.688213 .541052 3192.195 841.3906)" width="744.09" xlink:href="#h"/><use height="1052.36" transform="matrix(.189801 .877093 -.877887 .18963 2808.218 -31.80175)" width="744.09" xlink:href="#h"/><use height="1052.36" transform="matrix(-.491088 -.685334 -.654357 .547119 3044.978 852.3477)" width="744.09" xlink:href="#h"/><use height="1052.36" transform="matrix(.365788 .780433 -.81444 .350514 2481.48 -198.4304)" width="744.09" xlink:href="#h"/><use height="1052.36" transform="matrix(-.637479 -.598106 -.600157 .652774 3042.67 610.8642)" width="744.09" xlink:href="#h"/><use height="1052.36" transform="matrix(-.670169 -.481205 -.484993 .675247 2829.417 493.6649)" width="744.09" xlink:href="#h"/><use height="1052.36" transform="matrix(.371327 .757728 -.796697 .353163 2397.734 -146.0319)" width="744.09" xlink:href="#h"/><use height="1052.36" transform="matrix(.462503 .718011 -.743383 .446716 2175.161 -239.825)" width="744.09" xlink:href="#h"/><use height="1052.36" transform="matrix(-.675899 -.537329 -.484671 .733345 2793.343 479.0532)" width="744.09" xlink:href="#h"/><use height="1052.36" transform="matrix(-.346087 1.021902 -.994942 -.353338 3562.619 617.2993)" width="744.09" xlink:href="#h"/><use height="1052.36" transform="matrix(.275637 .986972 -1.002316 .27076 2925.568 -443.5212)" width="744.09" xlink:href="#h"/><use height="1052.36" transform="matrix(.329018 1.059671 -1.033348 .338851 2874.447 -601.9771)" width="744.09" xlink:href="#h"/><use height="1052.36" transform="matrix(.39445 1.004511 -.974629 .406765 2654.295 -641.5226)" width="744.09" xlink:href="#h"/><use height="1052.36" transform="matrix(.528696 .875115 -.892902 .510815 2329.721 -667.5531)" width="744.09" xlink:href="#h"/><use height="1052.36" transform="matrix(.552781 .868704 -.871656 .549752 2224.343 -695.5079)" width="744.09" xlink:href="#h"/><use height="1052.36" transform="matrix(.545686 .870302 -.876076 .539066 2193.914 -646.0939)" width="744.09" xlink:href="#h"/><use height="1052.36" transform="matrix(.643061 .795139 -.79481 .643513 1918.417 -719.2436)" width="744.09" xlink:href="#h"/><use height="1052.36" transform="matrix(-.902135 -.482109 -.475963 .913779 3261.291 -164.2933)" width="744.09" xlink:href="#h"/><use height="1052.36" transform="matrix(-.151193 1.075858 -.988502 -.164554 3427.625 265.658)" width="744.09" xlink:href="#h"/><use height="1052.36" transform="matrix(-.625152 -.862987 -.861421 .626287 3629.281 738.9606)" width="744.09" xlink:href="#h"/><use height="1052.36" transform="matrix(.113216 1.053721 -1.06774 .11173 3255.83 -187.4381)" width="744.09" xlink:href="#h"/><use height="1052.36" transform="matrix(-.64277 -.895285 -.859861 .669248 3573.671 714.9177)" width="744.09" xlink:href="#h"/><use height="1052.36" transform="matrix(-.631151 -.811448 -.802611 .638099 3401.265 725.6758)" width="744.09" xlink:href="#h"/><use height="1052.36" transform="matrix(.24308 1.150042 -1.130545 .24727 3178.236 -491.238)" width="744.09" xlink:href="#h"/><use height="1052.36" transform="matrix(.419876 .997844 -1.022915 .409583 2755.035 -595.9101)" width="744.09" xlink:href="#h"/><use height="1052.36" transform="matrix(-.700727 -.749749 -.713428 .736399 3252.822 527.5531)" width="744.09" xlink:href="#h"/><use height="1052.36" transform="matrix(.517898 .962634 -.976809 .51038 2521.404 -702.4952)" width="744.09" xlink:href="#h"/><use height="1052.36" transform="matrix(.555081 .880115 -.892784 .547202 2286.381 -655.2489)" width="744.09" xlink:href="#h"/><use height="1052.36" transform="matrix(-.843489 -.630462 -.636168 .83592 3196.744 280.2743)" width="744.09" xlink:href="#h"/></g><g><use height="1052.36" transform="matrix(1.026081 -.527627 .573085 .906582 -861.6593 1048.425)" width="744.09" xlink:href="#h"/><use height="1052.36" transform="matrix(.996965 -.642688 .649062 .987173 -930.8159 1060.041)" width="744.09" xlink:href="#h"/><use height="1052.36" transform="matrix(.814561 -.560079 .560077 .814561 -592.2413 1352.839)" width="744.09" xlink:href="#h"/><use height="1052.36" transform="matrix(-.637932 .770093 .770091 .637932 447.7431 256.1363)" width="744.09" xlink:href="#h"/><use height="1052.36" transform="matrix(.970044 -.372861 .368591 .981276 -359.4397 775.603)" width="744.09" xlink:href="#h"/><use height="1052.36" transform="matrix(.872203 -.489146 .489144 .872203 -387.2204 1051.731)" width="744.09" xlink:href="#h"/><use height="1052.36" transform="matrix(-.581951 .85154 .843282 .587647 306.333 315.2726)" width="744.09" xlink:href="#h"/><use height="1052.36" transform="matrix(.883684 -.559739 .565062 .875355 -583.406 1190.914)" width="744.09" xlink:href="#h"/><use height="1052.36" transform="matrix(-.464239 .834706 .805115 .520544 355.4233 408.478)" width="744.09" xlink:href="#h"/><use height="1052.36" transform="matrix(.600577 -.522018 .522596 .60015 -338.1829 1241.306)" width="744.09" xlink:href="#h"/><use height="1052.36" transform="matrix(-.50844 .750546 .761006 .494134 518.2056 565.6206)" width="744.09" xlink:href="#h"/><use height="1052.36" transform="matrix(.755672 -.654952 .65495 .755672 -495.3443 1475.821)" width="744.09" xlink:href="#h"/><use height="1052.36" transform="matrix(-.485631 .916794 .918665 .48464 131.5668 481.1247)" width="744.09" xlink:href="#h"/><use height="1052.36" transform="matrix(-.47861 .878029 .878025 .47861 246.4011 569.1745)" width="744.09" xlink:href="#h"/><use height="1052.36" transform="matrix(-.600145 .799893 .799891 .600145 577.9245 381.3682)" width="744.09" xlink:href="#h"/></g><g><use height="1052.36" transform="matrix(.935721 .488544 -.496699 .916247 983.9212 -666.3682)" width="744.09" xlink:href="#h"/><use height="1052.36" transform="matrix(.980452 .422405 -.427922 .95725 802.4647 -617.1123)" width="744.09" xlink:href="#h"/><use height="1052.36" transform="matrix(1.065277 .358136 -.386028 .965959 635.7466 -512.6684)" width="744.09" xlink:href="#h"/><use height="1052.36" transform="matrix(1.034188 .279432 -.273374 1.068487 457.0037 -558.3204)" width="744.09" xlink:href="#h"/><use height="1052.36" transform="matrix(1.049426 .230155 -.235513 1.025168 370.9369 -374.8913)" width="744.09" xlink:href="#h"/><use height="1052.36" transform="matrix(.803898 .781848 -.836225 .751203 1803.706 -700.1667)" width="744.09" xlink:href="#h"/><use height="1052.36" transform="matrix(-1.041525 -.175479 -.17684 1.032943 2387.776 -249.4307)" width="744.09" xlink:href="#h"/><use height="1052.36" transform="matrix(.860039 .611241 -.626969 .857484 1323.951 -663.1332)" width="744.09" xlink:href="#h"/><use height="1052.36" transform="matrix(.720278 .609835 -.708024 .691606 1725.51 -343.7461)" width="744.09" xlink:href="#h"/><use height="1052.36" transform="matrix(-.839499 -.140959 -.128995 .89646 2187.226 36.14228)" width="744.09" xlink:href="#h"/><use height="1052.36" transform="matrix(.742301 .470879 -.500929 .793447 1313.941 -339.0369)" width="744.09" xlink:href="#h"/><use height="1052.36" transform="matrix(-1.023452 -.128865 -.128381 1.033841 2266.341 -233.7415)" width="744.09" xlink:href="#h"/><use height="1052.36" transform="matrix(1.02832 .467983 -.47623 1.009946 896.6814 -729.9796)" width="744.09" xlink:href="#h"/><use height="1052.36" transform="matrix(-.870032 -.03643122 -.03642634 .853264 2036.286 66.66707)" width="744.09" xlink:href="#h"/><use height="1052.36" transform="matrix(.791858 .388611 -.446855 .757136 1159.631 -141.3732)" width="744.09" xlink:href="#h"/><use height="1052.36" transform="matrix(-1.058907 .05105063 .05195064 1.05255 1963.583 -373.0458)" width="744.09" xlink:href="#h"/><use height="1052.36" transform="matrix(1.011791 .362802 -.337656 1.086531 649.4917 -700.9716)" width="744.09" xlink:href="#h"/><use height="1052.36" transform="matrix(-.873065 .01354367 .01143627 .926846 1945.742 -61.60909)" width="744.09" xlink:href="#h"/><use height="1052.36" transform="matrix(.820777 .327547 -.366336 .805681 982.1377 -111.3936)" width="744.09" xlink:href="#h"/><use height="1052.36" transform="matrix(-1.037813 .123406 .122709 1.040759 1808.458 -354.4088)" width="744.09" xlink:href="#h"/><use height="1052.36" transform="matrix(1.052907 .182933 -.175351 1.097822 319.0755 -485.403)" width="744.09" xlink:href="#h"/><use height="1052.36" transform="matrix(1.047843 .130472 -.129238 1.057852 181.2178 -283.9914)" width="744.09" xlink:href="#h"/><use height="1052.36" transform="matrix(-.890144 .162781 .159546 .870934 1693.077 -46.41922)" width="744.09" xlink:href="#h"/><use height="1052.36" transform="matrix(.942223 .196016 -.250442 .905608 659.6853 -102.9433)" width="744.09" xlink:href="#h"/><use height="1052.36" transform="matrix(-1.016537 .210251 .201957 1.042059 1647.379 -377.1752)" width="744.09" xlink:href="#h"/><use height="1052.36" transform="matrix(1.029275 .07198404 -.0696393 1.063337 148.8458 -258.281)" width="744.09" xlink:href="#h"/><use height="1052.36" transform="matrix(-.865149 .244757 .252951 .861733 1505.641 -51.74182)" width="744.09" xlink:href="#h"/><use height="1052.36" transform="matrix(.839748 .13523 -.166841 .915057 608.985 -5.916645)" width="744.09" xlink:href="#h"/><use height="1052.36" transform="matrix(-.867774 .211451 .272755 .834455 1476.512 77.49399)" width="744.09" xlink:href="#h"/><path id="h" d="m900.43 1739.54c0 0 15.46 103.82 68.07 77.08 35.91-41.93-68.07-77.08-68.07-77.08z" fill="#ffc709" stroke="#000" stroke-linejoin="round" stroke-width="6.29"/></g><g><path d="m1100.38 1955.66c0 0-58.75.73-97.94-11.7-51.44-14.06-71.93-61.6-71.93-61.6 0 0-7.54 10.89-7.07 26.37.47 14.08 10.53 46.57 35.78 80.97 26.19 42.38 44.02 92.35 65.14 125.16 16.89 29.53 52.55 56.25 52.55 56.25 0 0 113.48-13.56 124.46-15.91 14.61-2.23 114.88-25.34 137.38-26.59 22.5-1.25 73.59 2.03 73.59 2.03 0 0-17.98-33.12-26.67-39.53-17.36-14.38-38.34-20.24-60.06-41.25-11.86-13.03-31.86-36.09-43.11-48.59-14.07-13.44-24.69-26.67-40-35.29-12.5-8.15-142.12-10.32-142.12-10.32z" stroke="#000" stroke-width="3.12"/><path d="m1356.85 2074.5c0 0-41.71 1.06-61.79 3.63-22.19 3.51-69.89 9.28-108.19 13.2-34.4 3.8-63.54 6.02-102.37 6.43l-70.52-3.23c2.25 4.19 8.53 15.46 14.77 24.42 7.5 11.49 13.4 19.14 27.12 31.92 11.27 10.67 18.22 16.21 21.45 18.68 8.45-.94 61.8-7.33 83.34-10.31 35.43-3.45 53.42-8.19 94.22-16.84 21.33-4.35 70.77-14.75 83.63-15.46 14.51-1.17 66.09 1.55 71.49 2.02-3.4-5.59-7.44-12.28-13.09-21.8-8-13.51-14.19-16.99-25.44-24.52-4.46-2.9-14.25-7.99-14.62-8.14z" fill="#ffc709"/><path d="m972.03 2008.78c3.29 6.1 11.95 23.58 19.69 39.21 9.9 21.42 15.36 33.09 22.59 47.14 15.72 1.17 31.06 1.62 70.2 2.87 38.83-.41 67.95-2.63 102.36-6.42 38.29-3.91 86.01-9.64 108.21-13.14 20.08-2.56 62.42-3.58 62.42-3.58 0 0-18.81-11.37-27.56-18.87-10.86-10.08-15.85-17.27-24.71-26.6-11.49-.94-27.5-1.01-45-2.26-30.63-1.72-77.73 1.48-103.98 1.48-26.25 0-70.63-.89-108.05-5.25-50.8-3.65-63.03-12-76.17-14.58z" fill="#d00"/><path d="m929.73 1892.89c7.78 12.04 15.61 24.31 28.13 34.53 21.25 15.17 26.73 18.18 67.78 27.82 36.99 5.85 45.32 4.23 94.64 5.75 48.06 1.48 61.95 2.6 93.04 5.12 15.03 1.21 20.06 2.47 26.53 3.51" fill="none" stroke="#ffc709" stroke-linecap="round" stroke-width="5"/></g></g><use height="1052.36" transform="matrix(-1 0 0 1 1627.635 0)" width="744.09" xlink:href="#b"/><g transform="translate(-896.5747 -1479.218)"><path d="m1509.38 2175.78c-6.86.06-14.16 1.01-21.22 2.25-47.09 8.16-82.57 35.76-199.88 63.5-40.41 11.07-81.72 14.69-129.44 12.31-3.52-.98-6.35-4.94-6.4-9.09l-11.5-6.56c-5.03 7.77-1.97 15.72-.16 20.56 1.49 3.98 3.86 8.49 7.38 11.28 84.81 60.39 86.99 73.38 135.78 119.41 26.9 26.51 35.01 34.9 124.56 20.69 17.67 28.65 21.49 43.59 72.44 28.78l8.56 21.47c7.92 14.79 18.78 15.02 46.34 9.15 71.38-15.35 92.03-32.76 173.54-34.56 81.53 1.8 102.17 19.2 173.56 34.56 27.56 5.87 38.42 5.64 46.34-9.15l8.56-21.47c50.96 14.81 54.78-.13 72.44-28.78 89.56 14.21 97.67 5.82 124.56-20.69 48.79-46.03 50.97-59.02 135.79-119.41 3.51-2.79 5.85-7.3 7.34-11.28 1.81-4.84 4.91-12.79-.13-20.56l-11.5 6.56c-.05 4.15-2.88 8.11-6.4 9.09-47.72 2.38-89.03-1.24-129.44-12.31-117.31-27.74-152.79-55.34-199.87-63.5-18.84-3.31-39.5-4.56-48.29 7.66-10.14 12.37-18.57 35.85-33.09 57.72-27.23-8.65-48.85-16.62-71.12-21.32-29.76-6.26-51.21-5.88-68.75-5.88-17.26 0-38.98-.38-68.72 5.88-22.28 4.7-43.9 12.67-71.13 21.32-14.52-21.87-22.94-45.35-33.09-57.72-5.49-7.64-15.64-10-27.06-9.91z" stroke="#000" stroke-width="3.13"/><path d="m1500.69 2234.12c7.34 13.07 10.33 23.42 13.17 34.8" fill="none" stroke="#ffc709" stroke-width="5"/><path d="m1216.31 2320.84c29.99-3.25 38.72-4.07 63.52-8.19 23.26-4.25 42.47-8.51 63.38-14.16 6.33 9.42 12.22 18.47 18.78 27.82 5.88 9.37 8.5 12.82 17.62 32.14-18.82 1.71-34.4 4.57-54.2 7.1-16.99 2.22-36.47 4.88-56.4 7.32-7.64-7.49-13.47-13.62-21.79-22.24-10.15-10.23-17.89-18.2-30.91-29.79z" fill="#d00"/><path d="m1426.69 2314.44c-30.18 6.36-33.92 6.97-56.58 14.31 11.51 20.05 17.96 38.98 25.98 55.64 23.24-5.27 35.06-7.72 57.57-12.36l-11.41-24.5z" fill="#d00"/><path d="m1268.92 2372.81c18.44-2.19 36.55-4.72 55.33-7.17 21.95-2.95 36.72-5.42 56.88-7.43 4.16 9.68 6.3 14.89 11.24 25.78 4.13 9.09 9.59 17.71 13.7 25.05-13.35 1.86-23.57 3.45-38.25 4.98-15.85 1.33-21.58 1.84-34.4 1.02-12.61-1.14-21.84-3.61-33.06-12.38-7.26-5.85-18.81-17.61-31.44-29.85z" fill="#ffc709"/><path d="m1396.1 2384.39c20.06-4.68 38.05-8.47 59.22-12.7 5.04 12.15 7.01 17.69 11.31 30.21 4.48 12.61 8.22 24.02 12.33 36.03-10.06 2.71-13.8 3.55-25.04 5-9.09.67-17.58-.3-24.14-5.57-5.26-3.79-12.75-15.3-19.8-27.63-5.32-9.49-9-15.26-13.88-25.34z" fill="#ffc709"/><path d="m1697.78 2292.5c-17.64.95-35.26 3.18-41.03 4.56-33.99 8.32-54.28 15.41-77.53 23.22-41.16 13.76-54.13 20.08-77.28 27.16-18.32 5.61-31.32 8.64-48 12.47 8.02 19.03 14.01 36.37 21.22 57.09 20.94-3.6 37.72-7.34 58.59-13.62 23.4-7.71 43.97-14.27 69.19-21.91 21.82-6.61 37.31-10.33 66.34-15.25 11.59-1.09 20.03-1.77 28.81-2.06v.03c4.19-.14 7.77-.2 11.29-.22 3.52.02 7.11.08 11.31.22v-.03c8.78.3 17.23.97 28.81 2.06 29.03 4.92 44.52 8.64 66.34 15.25 25.22 7.64 45.79 14.2 69.19 21.91 20.87 6.28 37.66 10.02 58.6 13.62 7.21-20.72 13.2-38.06 21.21-57.09-16.67-3.83-29.68-6.86-48-12.47-23.15-7.08-36.12-13.4-77.28-27.16-23.25-7.81-43.54-14.9-77.53-23.22-5.77-1.38-23.39-3.61-41.03-4.56-10.8-.45-12.47-.45-23.22 0z" fill="#d00"/><path d="m1699.53 2363.94v.06c-19.31.33-32.89 1.89-61.72 8.09-47.74 11.11-89.45 27.46-116.9 34.97-16.16 4.09-30.12 6.98-45.72 10.07 5.12 16.14 10.71 30.88 16.56 44.25 6.16 10.05 14.93 11.19 24.5 10.06 15.28-2.35 27.85-5.05 43.31-9.03 30.72-8.27 55.78-16.82 85.13-22.82 23.46-4.26 42.07-5.5 64.69-6.15 22.61.65 41.21 1.89 64.68 6.15 29.35 6 54.44 14.55 85.16 22.82 15.47 3.98 28.03 6.68 43.31 9.03 9.57 1.13 18.35-.01 24.5-10.06 5.85-13.37 11.44-28.11 16.56-44.25-15.6-3.09-29.59-5.98-45.75-10.07-27.45-7.51-69.13-23.86-116.87-34.97-28.82-6.19-42.42-7.76-61.72-8.09v-.06c-3.79-.02-6.58.03-9.87.03-3.29 0-6.07-.05-9.85-.03z" fill="#ffc709"/><path d="m1917.82 2234.9c-5.78 12.04-10.32 23.15-13.42 34.02" fill="none" stroke="#ffc709" stroke-width="5"/><path d="m2202.47 2320.84c-29.99-3.25-38.73-4.07-63.53-8.19-23.26-4.25-42.46-8.51-63.37-14.16-6.33 9.42-12.23 18.47-18.79 27.82-5.88 9.37-8.49 12.82-17.62 32.14 18.83 1.71 34.4 4.57 54.21 7.1 16.99 2.22 36.46 4.88 56.39 7.32 7.65-7.49 13.48-13.62 21.79-22.24 10.16-10.23 17.9-18.2 30.92-29.79z" fill="#d00"/><path d="m1992.09 2314.44c30.18 6.36 33.91 6.97 56.58 14.31-11.52 20.05-17.97 38.98-25.98 55.64-23.25-5.27-35.07-7.72-57.57-12.36l11.4-24.5z" fill="#d00"/><path d="m2149.85 2372.81c-18.44-2.19-36.55-4.72-55.32-7.17-21.95-2.95-36.73-5.42-56.88-7.43-4.17 9.68-6.31 14.89-11.25 25.78-4.13 9.09-9.58 17.71-13.69 25.05 13.34 1.86 23.57 3.45 38.24 4.98 15.85 1.33 21.58 1.84 34.4 1.02 12.62-1.14 21.85-3.61 33.07-12.38 7.26-5.85 18.8-17.61 31.43-29.85z" fill="#ffc709"/><path d="m2022.67 2384.39c-20.05-4.68-38.05-8.47-59.22-12.7-5.04 12.15-7.01 17.69-11.31 30.21-4.48 12.61-8.22 24.02-12.32 36.03 10.05 2.71 13.79 3.55 25.03 5 9.09.67 17.58-.3 24.15-5.57 5.26-3.79 12.75-15.3 19.79-27.63 5.32-9.49 9.01-15.26 13.88-25.34z" fill="#ffc709"/><path d="m1413.63 2286.61c4.8 13.35 15.25 30.37 22.05 44.73 2.9 5.54 12.28 25.16 19.09 43.1" fill="none" stroke="#ffc709" stroke-width="3.13"/><path d="m1327.29 2272.5c11.19 17.49 21.65 33.53 33.62 50.68 8.63 12.57 14.02 24.8 19.55 37.43" fill="none" stroke="#ffc709" stroke-width="3.13"/><path d="m2091.23 2274.32c-11.19 17.48-21.4 31.71-33.37 48.86-8.62 12.57-14.02 24.8-19.55 37.43" fill="none" stroke="#ffc709" stroke-width="3.13"/><path d="m2005.07 2285.33c-4.79 13.35-15.24 31.67-22.05 46.03-2.9 5.54-12.28 25.16-19.08 43.1" fill="none" stroke="#ffc709" stroke-width="3.13"/><path d="m1146.37 2241.24c-1.84 2.8-.62 7.08.8 9.66 1.21 2.19 5.21 7.42 10.62 8.18 40.88 1.61 67.19 1.09 109.44-7.02 44.63-10.55 84.82-20.5 129.96-37.38 26.56-9.58 58.2-23.15 77.2-28.33 23.89-6.43 47.25-10.47 55.56-.32 5.97 9.34-13.87 20.31-33.89 26.95-23.27 7.06-45.17 10.68-68.57 13.76-24.71 4.52-50.93 9.45-73.03 16.18-13.83 4.47-29.64 15.73-27.94 25.57 2.86 12.86 21.18 9.19 37.51 3.78l108.34-41.37c12.35-4.51 25.61-2.99 28.4 3.64 2.45 6.79.5 16.19-16.16 19.54l-51.87 8.76c-18.41 3.34-20.46 16.72-19.07 21.54 1.55 5.02 9.03 12.04 31.19 6.75 50.88-12.46 86.36-30.15 119.23-40.27 80.1-27.2 95-29.25 145.21-29.45 48.44.1 63.79 1.77 145.38 29.45 32.87 10.12 68.35 27.81 119.23 40.27 22.16 5.29 29.39-2.51 30.93-7.53 1.4-4.82-1.18-15.35-18.8-20.76l-51.87-8.76c-16.66-3.35-18.61-12.75-16.17-19.54 2.8-6.63 16.05-8.15 28.4-3.64l108.34 41.37c16.34 5.41 35.43 9.6 38.3-3.26 1.7-9.84-11.01-20.84-28.73-26.09-22.1-6.73-48.32-11.66-73.02-16.18-23.41-3.08-45.3-6.7-68.57-13.76-20.03-6.64-39.87-17.35-34.16-26.95 9.62-10.41 33.49-6.37 55.82.32 19 5.18 50.65 18.75 77.21 28.33 45.14 16.88 85.32 26.83 129.96 37.38 42.24 8.11 68.55 8.63 109.44 7.02 5.41-.76 9.41-5.99 10.62-8.18 1.42-2.58 2.64-6.86.79-9.66" fill="none" stroke="#ffc709" stroke-width="5"/></g></g></svg>